<?xml version="1.0" encoding="utf-8"?>
<!-- Generator: Adobe Illustrator 16.0.0, SVG Export Plug-In . SVG Version: 6.00 Build 0)  -->
<!DOCTYPE svg PUBLIC "-//W3C//DTD SVG 1.1//EN" "http://www.w3.org/Graphics/SVG/1.1/DTD/svg11.dtd">
<svg version="1.1" id="Layer_1" xmlns="http://www.w3.org/2000/svg" xmlns:xlink="http://www.w3.org/1999/xlink" x="0px" y="0px"
	 width="250px" height="70px" viewBox="0 0 250 70" enable-background="new 0 0 250 70" xml:space="preserve">
<g>
	<path fill="#282C37" d="M45.548,39.719c-2.888,8.156-11.844,12.427-20.001,9.537l5.277-14.899l6.69,2.37l0.271-16.253
		C44.768,23.955,48.221,32.175,45.548,39.719z"/>
	<path fill="#2B90D9" d="M24.134,31.988l-0.276,16.554c-7.041-3.456-10.532-11.715-7.85-19.287
		c2.889-8.158,11.845-12.429,20.002-9.539l-5.187,14.641L24.134,31.988z"/>
	<path fill="#FFFFFF" d="M23.762,54.296l0.096-5.754c0.543,0.266,1.104,0.508,1.689,0.714L23.762,54.296z"/>
	<path fill="#282C37" d="M23.807,54.313l3.547-4.533c-0.59-0.135-1.179-0.3-1.763-0.507L23.807,54.313z"/>
	<path fill="#2B90D9" d="M37.748,14.809l-3.547,4.532c0.589,0.135,1.178,0.301,1.761,0.508L37.748,14.809z"/>
	<path fill="#FFFFFF" d="M30.824,34.357l-5.277,14.899c-0.584-0.206-1.146-0.448-1.689-0.714l0.276-16.554L30.824,34.357z"/>
	<path fill="#FFFFFF" d="M37.886,14.419l-0.101,6.055c-0.57-0.284-1.16-0.541-1.775-0.758L37.886,14.419z"/>
	<path fill="#FFFFFF" d="M30.824,34.357l5.187-14.641c0.615,0.217,1.205,0.474,1.775,0.758l-0.271,16.253L30.824,34.357z"/>
</g>
<g>
	<g>
		<path fill="#282C37" stroke="#282C37" stroke-miterlimit="10" d="M60.64,37.29v8.61H58.3V23.52h6.69c1.1,0,2.1,0.15,3,0.45
			c0.9,0.3,1.669,0.73,2.31,1.29c0.64,0.561,1.135,1.235,1.485,2.025c0.35,0.79,0.525,1.675,0.525,2.655v0.9
			c0,0.34-0.035,0.74-0.105,1.2c-0.07,0.46-0.2,0.925-0.39,1.395c-0.19,0.47-0.455,0.935-0.795,1.395
			c-0.34,0.46-0.785,0.875-1.335,1.245c-0.55,0.37-1.21,0.665-1.98,0.885c-0.77,0.22-1.675,0.33-2.715,0.33H60.64z M60.64,25.5v9.81
			h4.35c1.699,0,2.955-0.38,3.765-1.14c0.81-0.76,1.215-1.87,1.215-3.33v-0.9c0-1.38-0.39-2.465-1.17-3.255
			c-0.78-0.79-2.05-1.185-3.81-1.185H60.64z"/>
		<path fill="#282C37" stroke="#282C37" stroke-miterlimit="10" d="M77.65,23.52v12.3l9.84-12.3h2.64l-8.37,10.56l9.27,11.82h-2.85
			L80.32,35.88l-2.67,3.24v6.78h-2.34V23.52H77.65z"/>
		<path fill="#282C37" stroke="#282C37" stroke-miterlimit="10" d="M94.299,24h13.65v1.92h-5.73v3.6c0,0.14-0.005,0.27-0.015,0.39
			c-0.011,0.12-0.025,0.24-0.045,0.36c0.479,0.4,1.01,0.855,1.59,1.365c0.58,0.51,1.159,1.05,1.74,1.62
			c0.579,0.57,1.145,1.16,1.694,1.77c0.55,0.61,1.055,1.225,1.516,1.845l-1.561,1.2c-0.38-0.48-0.805-0.98-1.274-1.5
			c-0.471-0.52-0.96-1.035-1.471-1.545c-0.51-0.51-1.03-1.005-1.56-1.485c-0.53-0.48-1.045-0.92-1.545-1.32l-0.21,0.27
			c-0.28,0.4-0.66,0.855-1.141,1.365c-0.479,0.51-0.989,1.025-1.529,1.545c-0.54,0.521-1.07,1.01-1.59,1.47
			c-0.521,0.46-0.96,0.83-1.32,1.11c-0.36,0.299-0.69,0.299-0.99,0l-0.96-0.961c0.96-0.779,1.91-1.639,2.85-2.58
			c0.94-0.94,1.82-1.85,2.641-2.73c0.399-0.4,0.66-0.785,0.78-1.155c0.119-0.37,0.18-0.785,0.18-1.245v-3.39h-5.7V24z
			 M100.539,49.38c-0.54,0-0.985-0.195-1.335-0.585c-0.351-0.39-0.525-0.896-0.525-1.515v-6.751h2.16v6.031
			c0,0.579,0.29,0.869,0.87,0.869h14.43v1.95H100.539z M113.229,31.5h-5.88v-1.95h5.88v-6.81h2.16v19.289h-2.16V31.5z"/>
		<path fill="#282C37" stroke="#282C37" stroke-miterlimit="10" d="M119.769,26.13v-1.92h14.28v1.92h-5.939v5.37
			c0,0.48-0.03,0.94-0.091,1.38c0.48,0.44,1.021,0.98,1.62,1.62c0.601,0.64,1.215,1.335,1.846,2.085
			c0.63,0.75,1.249,1.54,1.859,2.37s1.175,1.645,1.695,2.445l-1.65,1.17c-0.359-0.52-0.77-1.105-1.229-1.756
			c-0.461-0.648-0.96-1.309-1.5-1.979c-0.54-0.67-1.101-1.335-1.681-1.995s-1.15-1.26-1.71-1.8c-0.1,0.18-0.21,0.36-0.33,0.54
			c-0.119,0.18-0.25,0.37-0.39,0.57c-0.34,0.46-0.725,0.965-1.155,1.515c-0.43,0.55-0.885,1.101-1.364,1.649
			c-0.48,0.551-0.971,1.101-1.471,1.65c-0.5,0.551-0.989,1.055-1.47,1.516c-0.221,0.22-0.425,0.314-0.615,0.285
			c-0.19-0.031-0.335-0.096-0.435-0.195l-0.93-0.93c0.499-0.48,1.02-1.006,1.56-1.576c0.54-0.569,1.069-1.159,1.59-1.77
			c0.52-0.609,1.01-1.22,1.47-1.83c0.46-0.61,0.86-1.174,1.2-1.695c0.34-0.52,0.58-1.02,0.72-1.5c0.141-0.48,0.211-0.979,0.211-1.5
			v-5.64H119.769z M144.969,32.04v1.95h-4.26v15.33h-2.16V22.74h2.16v9.3H144.969z"/>
		<path fill="#282C37" stroke="#282C37" stroke-miterlimit="10" d="M162.759,23.85h2.16v8.4c0,0.32-0.011,0.61-0.03,0.87
			c-0.02,0.26-0.05,0.51-0.09,0.75c0.56,0.46,1.165,0.99,1.815,1.59c0.649,0.601,1.294,1.235,1.935,1.905
			c0.64,0.67,1.245,1.355,1.815,2.055c0.569,0.7,1.064,1.37,1.484,2.01l-1.59,1.291c-0.34-0.5-0.76-1.061-1.26-1.681
			s-1.035-1.245-1.605-1.875c-0.569-0.63-1.15-1.235-1.739-1.815c-0.591-0.58-1.155-1.08-1.695-1.5l-0.48,0.69
			c-0.34,0.46-0.72,0.95-1.14,1.47c-0.42,0.521-0.86,1.051-1.32,1.59c-0.46,0.541-0.935,1.076-1.425,1.605
			c-0.49,0.53-0.975,1.025-1.455,1.484c-0.22,0.221-0.425,0.315-0.615,0.285c-0.189-0.029-0.335-0.094-0.435-0.195l-0.99-0.93
			c1.021-1.039,2.04-2.154,3.061-3.345c1.02-1.189,1.899-2.305,2.64-3.345c0.34-0.46,0.585-0.97,0.735-1.53
			c0.149-0.56,0.225-1.04,0.225-1.44V23.85z M176.229,33.81h-6.39v-1.95h6.39v-9.15h2.16v26.61h-2.16V33.81z"/>
		<path fill="#282C37" stroke="#282C37" stroke-miterlimit="10" d="M186.458,30.27h8.729v-6.96h2.19V41.7h-10.62
			c-0.641,0-1.215-0.205-1.725-0.615c-0.511-0.409-0.766-1.065-0.766-1.965V23.31h2.19V30.27z M195.188,39.75v-7.53h-8.729v6.54
			c0,0.44,0.1,0.715,0.3,0.825s0.52,0.165,0.96,0.165H195.188z M203.318,22.47h2.189v26.85h-2.189V22.47z"/>
		<path fill="#282C37" stroke="#282C37" stroke-miterlimit="10" d="M209.588,42.63h25.05v1.92h-25.05V42.63z M221.048,23.46h2.25
			v3.75c0,0.44-0.05,0.88-0.15,1.32c0.54,0.34,1.181,0.755,1.921,1.245c0.739,0.49,1.529,1.05,2.369,1.68
			c0.841,0.63,1.721,1.315,2.641,2.055c0.92,0.74,1.83,1.541,2.729,2.4l-1.41,1.38c-1.859-1.7-3.56-3.105-5.1-4.215
			c-1.54-1.11-2.91-2.015-4.11-2.715l-0.54,0.57c-1.06,1.02-2.324,2.115-3.795,3.285c-1.47,1.17-3.085,2.205-4.845,3.105
			c-0.16,0.1-0.314,0.119-0.465,0.06s-0.285-0.169-0.405-0.33l-0.81-0.96c0.84-0.42,1.694-0.925,2.564-1.515s1.7-1.19,2.49-1.8
			c0.79-0.61,1.51-1.205,2.16-1.785c0.649-0.58,1.165-1.07,1.545-1.47c0.319-0.36,0.56-0.72,0.72-1.08s0.24-0.8,0.24-1.32V23.46z"/>
	</g>
</g>
<g>
	
		<text transform="matrix(1 0 0 1 43 -49.5)" fill="#282C37" stroke="#282C37" stroke-miterlimit="10" font-family="'GoyangIlsan-Regular'" font-size="30">PK전자 서비스</text>
</g>
</svg>
